<?xml version="1.0" encoding="utf-8"?>
<!-- Generator: Adobe Illustrator 26.5.0, SVG Export Plug-In . SVG Version: 6.00 Build 0)  -->
<svg version="1.1" xmlns="http://www.w3.org/2000/svg" xmlns:xlink="http://www.w3.org/1999/xlink" x="0px" y="0px"
	 viewBox="0 0 895.97 988.87" style="enable-background:new 0 0 895.97 988.87;" xml:space="preserve">
<style type="text/css">
	.st0{display:none;}
	.st1{display:inline;}
	.st2{fill:#DFF1F5;}
	.st3{fill:url(#SVGID_1_);}
	.st4{fill:url(#SVGID_00000021116593584214615370000001735210851386462903_);}
	.st5{fill:url(#SVGID_00000105416323928380962350000007349994657318281886_);}
	.st6{fill:url(#SVGID_00000055673726206135645310000005471754099157675966_);}
	.st7{clip-path:url(#SVGID_00000008867778833495291910000007748746810371694750_);fill:#D8CCFF;}
	
		.st8{clip-path:url(#SVGID_00000008867778833495291910000007748746810371694750_);fill:url(#SVGID_00000134934245788490734090000017207227517437899187_);}
	
		.st9{clip-path:url(#SVGID_00000008867778833495291910000007748746810371694750_);fill:url(#SVGID_00000113349646935835759800000001659440750835059587_);}
	.st10{clip-path:url(#SVGID_00000008867778833495291910000007748746810371694750_);}
	
		.st11{clip-path:url(#SVGID_00000008867778833495291910000007748746810371694750_);fill:url(#SVGID_00000106139964843104773550000005038078760852849027_);}
	
		.st12{clip-path:url(#SVGID_00000008867778833495291910000007748746810371694750_);fill:url(#SVGID_00000085929393570152638930000016886250300533671044_);}
	.st13{fill:#DECDFF;}
	
		.st14{clip-path:url(#SVGID_00000008867778833495291910000007748746810371694750_);fill:url(#SVGID_00000008134385764899638270000011638999003271317944_);}
	
		.st15{clip-path:url(#SVGID_00000008867778833495291910000007748746810371694750_);fill:url(#SVGID_00000169541650063611667600000008212887269783771010_);}
	.st16{display:inline;fill:#D8CCFF;}
	.st17{display:inline;fill:#552B9A;}
	.st18{fill:url(#SVGID_00000086685907357470900910000002702268260005349258_);}
	.st19{fill:url(#SVGID_00000058584667588315195220000001263087137918237088_);}
	.st20{fill:url(#SVGID_00000057124732061387326660000011022725294391053485_);}
	.st21{fill:url(#SVGID_00000121257021470187599580000007020290946548364734_);}
	.st22{fill:#552B9A;}
	.st23{fill:#FFFFFF;}
	.st24{display:inline;fill:url(#SVGID_00000072278460363689556730000007030511160712940475_);}
	.st25{fill:#DC4439;}
	.st26{fill:#EDBA2C;}
	.st27{fill:#4D87F2;}
	.st28{fill:#5FA650;}
	.st29{font-family:'Poppins-Regular';}
	.st30{font-size:13.2499px;}
	.st31{fill:#F2C43E;}
	.st32{clip-path:url(#SVGID_00000118399405890787187020000001410890198186967938_);fill:#592A98;}
	.st33{clip-path:url(#SVGID_00000118399405890787187020000001410890198186967938_);}
	.st34{fill:none;stroke:#FFFFFF;stroke-width:2.6745;stroke-linecap:round;stroke-miterlimit:10;}
	.st35{opacity:0.7;}
	.st36{fill:#232323;}
	.st37{clip-path:url(#SVGID_00000154390288276884798980000008682586716126918301_);fill:#552B9A;}
	.st38{clip-path:url(#SVGID_00000154390288276884798980000008682586716126918301_);}
	.st39{fill:none;stroke:#FFFFFF;stroke-width:3;stroke-linecap:round;stroke-miterlimit:10;}
	.st40{clip-path:url(#SVGID_00000142875478216928077500000010693029527800240042_);}
	.st41{fill-rule:evenodd;clip-rule:evenodd;fill:#552B9A;}
	.st42{fill:none;stroke:#552B9A;stroke-width:5.0922;stroke-linecap:round;stroke-linejoin:round;stroke-miterlimit:10;}
	.st43{fill:url(#SVGID_00000142164411731107709590000000859732559523063213_);}
	.st44{fill:#73CC80;}
	.st45{fill:url(#SVGID_00000119802543209730017820000016480045308177526719_);}
	.st46{fill:#D8CCFF;}
	.st47{fill:url(#SVGID_00000129190356974570741720000012794031668986972087_);}
	.st48{fill:url(#SVGID_00000122695508189860865510000000063952113453342601_);}
	.st49{fill:url(#SVGID_00000142893287657856721110000017019409468607854998_);}
	.st50{fill:url(#SVGID_00000105396188035279901790000011964346332507261354_);}
	.st51{fill:#552B9A;stroke:#FFFFFF;stroke-miterlimit:10;}
	.st52{fill:#41237C;}
	.st53{fill:#552B98;}
	.st54{fill:#6B46C4;}
	
		.st55{clip-path:url(#SVGID_00000119108557946611055750000000312662237572207267_);fill:url(#SVGID_00000119830667862691140330000013250946311987519411_);}
	
		.st56{clip-path:url(#SVGID_00000119108557946611055750000000312662237572207267_);fill:url(#SVGID_00000172416800914264828960000009454224941678999172_);}
	.st57{clip-path:url(#SVGID_00000119108557946611055750000000312662237572207267_);}
	.st58{fill:url(#SVGID_00000031917701258026717670000013508619385688694707_);}
	
		.st59{clip-path:url(#SVGID_00000119108557946611055750000000312662237572207267_);fill:url(#SVGID_00000090286047631644712260000008851027335997840270_);}
	.st60{fill:#EDF6FB;}
	.st61{fill:#DBEEF8;}
	.st62{fill:#C8E5F4;}
	.st63{fill:#B5DCF1;}
	.st64{fill:#A2D4EE;}
	.st65{fill:#8ECBEA;}
	.st66{fill:#7AC2E7;}
	.st67{fill:#64BAE4;}
	.st68{fill:#4BB1E0;}
	.st69{fill:#83D38D;}
	.st70{fill:#92D99A;}
	.st71{fill:#A1DFA8;}
	.st72{fill:#B1E4B6;}
	.st73{fill:#C0EAC4;}
	.st74{fill:#D0EFD3;}
	.st75{fill:#E0F5E2;}
	.st76{fill:#EFF9F0;}
	.st77{fill:#CD385A;}
	.st78{fill:#D4566B;}
	.st79{fill:#DB6D7B;}
	.st80{fill:#E1838C;}
	.st81{fill:#E7989D;}
	.st82{fill:#ECADB0;}
	.st83{fill:#F1C1C2;}
	.st84{fill:#F6D5D6;}
	.st85{fill:#FAE9E9;}
	.st86{fill:#5EBDD4;}
	.st87{fill:#73C5D9;}
	.st88{fill:#85CCDD;}
	.st89{fill:#97D3E2;}
	.st90{fill:#A9DBE7;}
	.st91{fill:#BAE2EB;}
	.st92{fill:#CCE9F0;}
	.st93{fill:#DDF0F5;}
	.st94{fill:#EEF7FA;}
	.st95{fill:#003383;}
	.st96{fill:#304591;}
	.st97{fill:#4B589E;}
	.st98{fill:#646DAB;}
	.st99{fill:#7D83B9;}
	.st100{fill:#969AC7;}
	.st101{fill:#B0B3D5;}
	.st102{fill:#CBCCE3;}
	.st103{fill:#E5E5F1;}
	.st104{fill:#6841A5;}
	.st105{fill:#7A57B0;}
	.st106{fill:#8C6DBB;}
	.st107{fill:#9F84C6;}
	.st108{fill:#B29BD1;}
	.st109{fill:#C5B4DD;}
	.st110{fill:#D9CDE8;}
	.st111{fill:#ECE6F3;}
	.st112{fill:#F5CB55;}
	.st113{fill:#F8D16A;}
	.st114{fill:#FAD780;}
	.st115{fill:#FCDE95;}
	.st116{fill:#FDE4A9;}
	.st117{fill:#FEEBBF;}
	.st118{fill:#FEF1D4;}
	.st119{fill:#FEF8EA;}
	.st120{display:inline;fill:#F6D5D6;}
	.st121{display:inline;fill:#FEF2D7;}
	.st122{display:inline;fill:#DFF1F5;}
	.st123{display:inline;fill:#CD385A;}
	.st124{display:inline;fill:#5EBDD4;}
	.st125{display:inline;fill:#F2C43E;}
	.st126{display:inline;fill:#A2D4EE;}
	.st127{display:inline;fill:#EDF6FB;stroke:#363636;stroke-width:0.7144;stroke-miterlimit:10;}
	.st128{display:inline;fill:url(#SVGID_00000094620441348558287240000016150079097311624591_);}
</style>
<g id="Capa_1" class="st0">
	<g class="st1">
		<defs>
			<rect id="SVGID_00000041262343787023647690000012066663564581399218_" x="1362.66" y="-1025.2" width="1924" height="3552.92"/>
		</defs>
		<clipPath id="SVGID_00000180348354088145543990000013012022761210793859_">
			<use xlink:href="#SVGID_00000041262343787023647690000012066663564581399218_"  style="overflow:visible;"/>
		</clipPath>
		<path style="clip-path:url(#SVGID_00000180348354088145543990000013012022761210793859_);fill:#D8CCFF;" d="M879.16,656.97
			c91.14-62.7,162.9-150.6,238.66-232.45s159.93-160.71,263.46-197.18c103.53-36.47,230.81-20.95,303.03,64.28
			c75.19,88.74,75.66,229.27,157.44,311.49c86.75,87.22,226.83,73.93,337.64,123.76c141.2,63.49,222.84,243.46,180.09,396.95
			s-204.3,260.41-356.33,235.82c-101.13-16.36-198.99-82.87-298.4-57.6c-117.89,29.97-171.3,169.35-260.88,254.39
			c-134.6,127.77-353.76,120.16-509.45,21.57s-256.74-269.12-325.27-444.62c-35.68-91.36-64.17-185.74-85.11-281.9
			c-21.14-97.07,13.99-128.8,97.25-121.24C713.82,738.65,802.09,709.99,879.16,656.97z"/>
	</g>
	<linearGradient id="SVGID_1_" gradientUnits="userSpaceOnUse" x1="957.7161" y1="171.7693" x2="957.7161" y2="66.2274">
		<stop  offset="0" style="stop-color:#6B46C4"/>
		<stop  offset="0.1213" style="stop-color:#5030A7"/>
		<stop  offset="0.209" style="stop-color:#412397"/>
		<stop  offset="0.3565" style="stop-color:#452499"/>
		<stop  offset="0.5148" style="stop-color:#52269F"/>
		<stop  offset="0.6782" style="stop-color:#682BA8"/>
		<stop  offset="0.8439" style="stop-color:#8531B6"/>
		<stop  offset="0.9598" style="stop-color:#9F36C1"/>
	</linearGradient>
	<path style="display:inline;fill:url(#SVGID_1_);" d="M1042.98,142.31H872.46c-3.7,0-6.7-3-6.7-6.7v-41.1c0-3.7,3-6.7,6.7-6.7
		h170.52c3.7,0,6.7,3,6.7,6.7v41.1C1049.67,139.31,1046.67,142.31,1042.98,142.31z"/>
	<g class="st1">
		<g>
			<path d="M831,142.31H660.71c-3.75,0-6.81-3.07-6.81-6.81V94.63c0-3.75,3.07-6.81,6.81-6.81H831c3.75,0,6.81,3.07,6.81,6.81v40.87
				C837.81,139.25,834.75,142.31,831,142.31"/>
			<path class="st23" d="M746.72,117.45c-3.2,0-5.82,2.44-5.82,5.8c0,3.33,2.61,5.79,5.82,5.79s5.82-2.46,5.82-5.79
				C752.54,119.89,749.93,117.45,746.72,117.45 M746.72,126.76c-1.76,0-3.27-1.45-3.27-3.51c0-2.09,1.51-3.51,3.27-3.51
				s3.27,1.43,3.27,3.51C749.99,125.31,748.48,126.76,746.72,126.76 M734.04,117.45c-3.2,0-5.82,2.44-5.82,5.8
				c0,3.33,2.61,5.79,5.82,5.79s5.82-2.46,5.82-5.79C739.85,119.89,737.24,117.45,734.04,117.45 M734.04,126.76
				c-1.75,0-3.27-1.45-3.27-3.51c0-2.09,1.51-3.51,3.27-3.51c1.76,0,3.27,1.43,3.27,3.51C737.31,125.31,735.79,126.76,734.04,126.76
				 M718.94,119.23v2.46h5.88c-0.18,1.38-0.64,2.39-1.34,3.09c-0.86,0.86-2.2,1.8-4.54,1.8c-3.62,0-6.45-2.92-6.45-6.54
				c0-3.62,2.83-6.54,6.45-6.54c1.95,0,3.38,0.77,4.43,1.75l1.73-1.73c-1.47-1.4-3.42-2.48-6.17-2.48c-4.96,0-9.13,4.04-9.13,9
				c0,4.96,4.17,9,9.13,9c2.68,0,4.7-0.88,6.28-2.52c1.62-1.62,2.13-3.91,2.13-5.75c0-0.57-0.04-1.1-0.13-1.54H718.94z
				 M780.67,121.14c-0.48-1.3-1.95-3.69-4.96-3.69c-2.98,0-5.46,2.35-5.46,5.8c0,3.25,2.46,5.79,5.75,5.79
				c2.66,0,4.19-1.62,4.83-2.57l-1.98-1.32c-0.66,0.97-1.56,1.6-2.85,1.6c-1.29,0-2.22-0.59-2.81-1.75l7.75-3.21L780.67,121.14z
				 M772.77,123.07c-0.07-2.24,1.73-3.38,3.03-3.38c1.01,0,1.87,0.5,2.15,1.23L772.77,123.07z M766.47,128.69h2.55v-17.03h-2.55
				V128.69z M762.3,118.75h-0.09c-0.57-0.68-1.67-1.3-3.05-1.3c-2.9,0-5.55,2.55-5.55,5.82c0,3.25,2.66,5.77,5.55,5.77
				c1.38,0,2.48-0.61,3.05-1.32h0.09v0.83c0,2.22-1.18,3.4-3.09,3.4c-1.56,0-2.52-1.12-2.92-2.06l-2.22,0.92
				c0.64,1.54,2.33,3.42,5.14,3.42c2.98,0,5.51-1.76,5.51-6.04v-10.4h-2.42V118.75z M759.38,126.76c-1.76,0-3.23-1.47-3.23-3.49
				c0-2.04,1.47-3.53,3.23-3.53c1.73,0,3.09,1.49,3.09,3.53C762.47,125.29,761.11,126.76,759.38,126.76 M792.59,111.66h-6.09v17.03
				h2.54v-6.45h3.55c2.82,0,5.59-2.04,5.59-5.29C798.18,113.7,795.41,111.66,792.59,111.66 M792.66,119.87h-3.62v-5.84h3.62
				c1.9,0,2.98,1.57,2.98,2.92C795.64,118.27,794.56,119.87,792.66,119.87 M808.37,117.42c-1.84,0-3.75,0.81-4.54,2.61l2.26,0.94
				c0.48-0.94,1.38-1.25,2.32-1.25c1.31,0,2.65,0.79,2.67,2.19v0.18c-0.46-0.26-1.45-0.66-2.65-0.66c-2.43,0-4.91,1.34-4.91,3.83
				c0,2.28,1.99,3.75,4.23,3.75c1.71,0,2.65-0.77,3.24-1.66h0.09v1.31h2.45v-6.53C813.54,119.11,811.28,117.42,808.37,117.42
				 M808.06,126.75c-0.83,0-1.99-0.42-1.99-1.45c0-1.31,1.45-1.82,2.69-1.82c1.12,0,1.64,0.24,2.32,0.57
				C810.89,125.64,809.53,126.75,808.06,126.75 M822.48,117.79l-2.91,7.38h-0.09l-3.02-7.38h-2.74l4.54,10.32l-2.59,5.74h2.65
				l6.99-16.06H822.48z M799.58,128.69h2.54v-17.03h-2.54V128.69z"/>
			<path class="st25" d="M682.12,114.28l-14.5,15.39c0,0,0,0.01,0,0.01c0.45,1.67,1.97,2.9,3.78,2.9c0.72,0,1.4-0.2,1.99-0.54
				l0.05-0.03l16.33-9.42L682.12,114.28z"/>
			<path class="st26" d="M696.8,111.66l-0.01-0.01l-7.05-4.09l-7.94,7.07l7.97,7.97l7.01-4.04c1.23-0.66,2.06-1.96,2.06-3.45
				C698.84,113.61,698.02,112.33,696.8,111.66"/>
			<path class="st27" d="M667.62,100.46c-0.09,0.32-0.13,0.66-0.13,1.01v27.2c0,0.35,0.05,0.69,0.13,1.01l15-15L667.62,100.46z"/>
			<path class="st28" d="M682.23,115.07l7.51-7.51l-16.31-9.45c-0.59-0.36-1.28-0.56-2.02-0.56c-1.81,0-3.34,1.23-3.79,2.91
				c0,0,0,0,0,0L682.23,115.07z"/>
			<g>
				<path class="st23" d="M710.82,97.22h2.71c0.88,0,1.64,0.18,2.29,0.53c0.65,0.36,1.15,0.86,1.51,1.5
					c0.35,0.64,0.53,1.38,0.53,2.21s-0.18,1.57-0.53,2.21c-0.35,0.64-0.85,1.14-1.51,1.5c-0.65,0.36-1.42,0.53-2.29,0.53h-2.71
					V97.22z M713.5,104.48c0.96,0,1.71-0.27,2.25-0.8c0.53-0.53,0.8-1.27,0.8-2.21c0-0.94-0.27-1.68-0.8-2.21
					c-0.53-0.53-1.28-0.8-2.25-0.8h-1.37v6.02H713.5z"/>
				<path class="st23" d="M719.56,97.22h1.3v8.49h-1.3V97.22z"/>
				<path class="st23" d="M723.59,105.28c-0.56-0.41-0.95-0.99-1.17-1.73l1.23-0.5c0.13,0.47,0.35,0.86,0.68,1.16
					s0.72,0.45,1.17,0.45c0.43,0,0.79-0.11,1.08-0.33c0.3-0.22,0.44-0.53,0.44-0.91c0-0.36-0.13-0.65-0.39-0.88
					c-0.26-0.23-0.71-0.46-1.35-0.68l-0.53-0.19c-0.58-0.21-1.06-0.49-1.44-0.86c-0.38-0.37-0.57-0.86-0.57-1.46
					c0-0.42,0.11-0.81,0.34-1.16c0.23-0.36,0.54-0.64,0.95-0.84c0.41-0.21,0.87-0.31,1.38-0.31c0.73,0,1.32,0.18,1.77,0.54
					c0.44,0.36,0.74,0.76,0.9,1.21l-1.17,0.5c-0.08-0.28-0.24-0.53-0.5-0.73c-0.25-0.21-0.58-0.31-0.98-0.31
					c-0.39,0-0.72,0.1-0.98,0.31c-0.27,0.21-0.4,0.47-0.4,0.78c0,0.29,0.12,0.54,0.36,0.73c0.24,0.19,0.61,0.38,1.12,0.55l0.55,0.19
					c0.73,0.25,1.29,0.58,1.68,0.98c0.4,0.4,0.59,0.94,0.59,1.61c0,0.55-0.14,1.02-0.42,1.39c-0.28,0.38-0.64,0.65-1.08,0.84
					c-0.44,0.18-0.89,0.27-1.35,0.27C724.78,105.9,724.15,105.69,723.59,105.28z"/>
				<path class="st23" d="M730.04,97.22h2.92c0.51,0,0.97,0.11,1.39,0.33c0.42,0.22,0.76,0.53,1.01,0.92
					c0.25,0.4,0.37,0.84,0.37,1.34c0,0.5-0.12,0.94-0.37,1.34c-0.25,0.4-0.58,0.7-1.01,0.92c-0.42,0.22-0.89,0.33-1.39,0.33h-1.61
					v3.29h-1.3V97.22z M732.99,101.18c0.43,0,0.78-0.14,1.05-0.41c0.26-0.27,0.4-0.59,0.4-0.95c0-0.36-0.13-0.68-0.4-0.95
					c-0.26-0.27-0.61-0.41-1.05-0.41h-1.65v2.73H732.99z"/>
				<path class="st23" d="M738.98,105.31c-0.67-0.4-1.2-0.93-1.58-1.61c-0.38-0.68-0.57-1.42-0.57-2.23c0-0.81,0.19-1.56,0.57-2.23
					c0.38-0.68,0.91-1.21,1.58-1.61c0.67-0.4,1.42-0.59,2.24-0.59s1.57,0.2,2.23,0.59c0.67,0.4,1.19,0.93,1.58,1.61
					c0.38,0.68,0.57,1.42,0.57,2.23c0,0.81-0.19,1.56-0.57,2.23c-0.38,0.68-0.91,1.21-1.58,1.61c-0.67,0.4-1.41,0.59-2.23,0.59
					S739.66,105.7,738.98,105.31z M742.78,104.26c0.47-0.27,0.84-0.65,1.11-1.14c0.27-0.49,0.41-1.04,0.41-1.65
					c0-0.62-0.14-1.17-0.41-1.65c-0.27-0.49-0.64-0.87-1.11-1.14c-0.47-0.27-0.99-0.41-1.56-0.41c-0.57,0-1.09,0.14-1.56,0.41
					c-0.47,0.27-0.84,0.65-1.11,1.14c-0.27,0.49-0.41,1.04-0.41,1.65c0,0.62,0.14,1.17,0.41,1.65c0.27,0.49,0.64,0.87,1.11,1.14
					c0.47,0.27,0.99,0.41,1.56,0.41C741.79,104.67,742.31,104.53,742.78,104.26z"/>
				<path class="st23" d="M747.29,97.22h1.54l3.84,6.23h0.07l-0.07-1.64v-4.6h1.29v8.49h-1.35l-4.03-6.55h-0.07l0.07,1.64v4.92
					h-1.29V97.22z"/>
				<path class="st23" d="M756.11,97.22h1.3v8.49h-1.3V97.22z"/>
				<path class="st23" d="M759.55,97.22h3.18c0.45,0,0.87,0.1,1.26,0.3c0.39,0.2,0.69,0.47,0.92,0.81c0.23,0.34,0.34,0.72,0.34,1.14
					c0,0.42-0.1,0.78-0.31,1.1s-0.49,0.55-0.84,0.72v0.06c0.44,0.15,0.79,0.4,1.06,0.75c0.26,0.35,0.39,0.76,0.39,1.23
					c0,0.47-0.12,0.88-0.36,1.24c-0.24,0.36-0.56,0.64-0.97,0.84c-0.41,0.2-0.85,0.3-1.33,0.3h-3.32V97.22z M762.67,100.79
					c0.4,0,0.71-0.12,0.95-0.36c0.24-0.24,0.36-0.52,0.36-0.84c0-0.32-0.12-0.59-0.35-0.82c-0.23-0.23-0.54-0.35-0.91-0.35h-1.86
					v2.37H762.67z M762.87,104.5c0.41,0,0.74-0.12,0.99-0.37c0.25-0.25,0.37-0.55,0.37-0.89c0-0.35-0.13-0.65-0.39-0.9
					c-0.26-0.25-0.6-0.38-1.03-0.38h-1.97v2.55H762.87z"/>
				<path class="st23" d="M767.25,97.22h1.3v7.25h3.65v1.23h-4.95V97.22z"/>
				<path class="st23" d="M773.58,97.22h5.14v1.23h-3.84v2.39h3.46v1.23h-3.46v2.39h3.84v1.23h-5.14V97.22z"/>
				<path class="st23" d="M783.12,97.22h5.14v1.23h-3.84v2.39h3.46v1.23h-3.46v2.39h3.84v1.23h-5.14V97.22z"/>
				<path class="st23" d="M790.09,97.22h1.54l3.84,6.23h0.07l-0.07-1.64v-4.6h1.29v8.49h-1.35l-4.03-6.55h-0.07l0.07,1.64v4.92
					h-1.29V97.22z"/>
			</g>
		</g>
		<g>
			<text transform="matrix(1 0 0 1 655.8562 76.2116)" class="st29 st30">Próximamente</text>
		</g>
	</g>
</g>
<g id="Assets">
	<path class="st46" d="M608.05,18.8c-33.47,18.91-59.36,49.64-95.03,64.3c-31.34,12.88-68.56,11.56-98.85-3.52
		c-26.02-12.95-46.07-34.85-70.71-50.13c-55.07-34.13-131.9-29.88-184.1,8.25s-77.53,106.87-64.5,168.91
		c7.4,35.21,25.75,67.51,33.81,102.58c16.19,70.5-11,144.05-49.69,205.79c-28.28,45.14-63.53,88.09-75.28,139.64
		c-15.35,67.36,19.01,134.69,63.65,188.72c228.13,276.12,892.75,132.15,823.58-204.49c-7.17-34.88-30.96-64.42-54.3-91.82
		c-19.67-23.09-41.68-44.96-55.01-71.96c-13.78-27.92-17.32-60.47-9.83-90.56c13.36-53.71,54.78-95.92,68.97-149.8
		c9.9-37.6,17.88-89.87,6.16-128.19C818.98,15.13,689.79-27.37,608.05,18.8z"/>
</g>
<g id="Recursos" class="st0">
</g>
</svg>
