<svg width="897" height="990" viewBox="0 0 897 990" fill="none" xmlns="http://www.w3.org/2000/svg">
<path d="M609.05 19.8002C575.58 38.7102 549.69 69.4402 514.02 84.1002C482.68 96.9802 445.46 95.6602 415.17 80.5802C389.15 67.6302 369.1 45.7302 344.46 30.4502C289.39 -3.67979 212.56 0.570213 160.36 38.7002C108.16 76.8302 82.8302 145.57 95.8602 207.61C103.26 242.82 121.61 275.12 129.67 310.19C145.86 380.69 118.67 454.24 79.9802 515.98C51.7002 561.12 16.4502 604.07 4.70018 655.62C-10.6498 722.98 23.7102 790.31 68.3502 844.34C296.48 1120.46 961.1 976.49 891.93 639.85C884.76 604.97 860.97 575.43 837.63 548.03C817.96 524.94 795.95 503.07 782.62 476.07C768.84 448.15 765.3 415.6 772.79 385.51C786.15 331.8 827.57 289.59 841.76 235.71C851.66 198.11 859.64 145.84 847.92 107.52C819.98 16.1302 690.79 -26.3698 609.05 19.8002Z" fill="#D8CCFF"/>
</svg>
