<svg width="184" height="55" viewBox="0 0 184 55" fill="none" xmlns="http://www.w3.org/2000/svg">
<path d="M177.1 54.49H6.81C3.06 54.49 0 51.42 0 47.68V6.81C0 3.06 3.07 0 6.81 0H177.1C180.85 0 183.91 3.07 183.91 6.81V47.68C183.91 51.43 180.84 54.49 177.1 54.49Z" fill="black"/>
<path d="M92.8199 29.6302C89.6199 29.6302 86.9999 32.0702 86.9999 35.4302C86.9999 38.7602 89.6099 41.2202 92.8199 41.2202C96.0199 41.2202 98.6399 38.7602 98.6399 35.4302C98.6399 32.0702 96.0199 29.6302 92.8199 29.6302ZM92.8199 38.9402C91.0599 38.9402 89.5499 37.4902 89.5499 35.4302C89.5499 33.3402 91.0599 31.9202 92.8199 31.9202C94.5799 31.9202 96.0899 33.3502 96.0899 35.4302C96.0899 37.4902 94.5799 38.9402 92.8199 38.9402ZM80.1299 29.6302C76.9299 29.6302 74.3099 32.0702 74.3099 35.4302C74.3099 38.7602 76.9199 41.2202 80.1299 41.2202C83.3299 41.2202 85.9499 38.7602 85.9499 35.4302C85.9499 32.0702 83.3299 29.6302 80.1299 29.6302ZM80.1299 38.9402C78.3799 38.9402 76.8599 37.4902 76.8599 35.4302C76.8599 33.3402 78.3699 31.9202 80.1299 31.9202C81.8899 31.9202 83.3999 33.3502 83.3999 35.4302C83.3999 37.4902 81.8899 38.9402 80.1299 38.9402ZM65.0399 31.4102V33.8702H70.9199C70.7399 35.2502 70.2799 36.2602 69.5799 36.9602C68.7199 37.8202 67.3799 38.7602 65.0399 38.7602C61.4199 38.7602 58.5899 35.8402 58.5899 32.2202C58.5899 28.6002 61.4199 25.6802 65.0399 25.6802C66.9899 25.6802 68.4199 26.4502 69.4699 27.4302L71.1999 25.7002C69.7299 24.3002 67.7799 23.2202 65.0299 23.2202C60.0699 23.2202 55.8999 27.2602 55.8999 32.2202C55.8999 37.1802 60.0699 41.2202 65.0299 41.2202C67.7099 41.2202 69.7299 40.3402 71.3099 38.7002C72.9299 37.0802 73.4399 34.7902 73.4399 32.9502C73.4399 32.3802 73.3999 31.8502 73.3099 31.4102H65.0399V31.4102ZM126.76 33.3202C126.28 32.0202 124.81 29.6302 121.8 29.6302C118.82 29.6302 116.34 31.9802 116.34 35.4302C116.34 38.6802 118.8 41.2202 122.09 41.2202C124.75 41.2202 126.28 39.6002 126.92 38.6502L124.94 37.3302C124.28 38.3002 123.38 38.9302 122.09 38.9302C120.8 38.9302 119.87 38.3402 119.28 37.1802L127.03 33.9702L126.76 33.3202ZM118.86 35.2502C118.79 33.0102 120.59 31.8702 121.89 31.8702C122.9 31.8702 123.76 32.3702 124.04 33.1002L118.86 35.2502ZM112.56 40.8702H115.11V23.8402H112.56V40.8702ZM108.39 30.9302H108.3C107.73 30.2502 106.63 29.6302 105.25 29.6302C102.35 29.6302 99.6999 32.1802 99.6999 35.4502C99.6999 38.7002 102.36 41.2202 105.25 41.2202C106.63 41.2202 107.73 40.6102 108.3 39.9002H108.39V40.7302C108.39 42.9502 107.21 44.1302 105.3 44.1302C103.74 44.1302 102.78 43.0102 102.38 42.0702L100.16 42.9902C100.8 44.5302 102.49 46.4102 105.3 46.4102C108.28 46.4102 110.81 44.6502 110.81 40.3702V29.9802H108.39V30.9302ZM105.47 38.9402C103.71 38.9402 102.24 37.4702 102.24 35.4502C102.24 33.4102 103.71 31.9202 105.47 31.9202C107.2 31.9202 108.56 33.4102 108.56 35.4502C108.57 37.4702 107.21 38.9402 105.47 38.9402ZM138.69 23.8402H132.6V40.8702H135.14V34.4202H138.69C141.51 34.4202 144.28 32.3802 144.28 29.1302C144.28 25.8802 141.51 23.8402 138.69 23.8402ZM138.75 32.0502H135.13V26.2102H138.75C140.65 26.2102 141.73 27.7802 141.73 29.1302C141.73 30.4502 140.65 32.0502 138.75 32.0502ZM154.46 29.6002C152.62 29.6002 150.71 30.4102 149.92 32.2102L152.18 33.1502C152.66 32.2102 153.56 31.9002 154.5 31.9002C155.81 31.9002 157.15 32.6902 157.17 34.0902V34.2702C156.71 34.0102 155.72 33.6102 154.52 33.6102C152.09 33.6102 149.61 34.9502 149.61 37.4402C149.61 39.7202 151.6 41.1902 153.84 41.1902C155.55 41.1902 156.49 40.4202 157.08 39.5302H157.17V40.8402H159.62V34.3102C159.63 31.2902 157.38 29.6002 154.46 29.6002ZM154.16 38.9402C153.33 38.9402 152.17 38.5202 152.17 37.4902C152.17 36.1802 153.62 35.6702 154.86 35.6702C155.98 35.6702 156.5 35.9102 157.18 36.2402C156.98 37.8202 155.62 38.9402 154.16 38.9402ZM168.57 29.9702L165.66 37.3502H165.57L162.55 29.9702H159.81L164.35 40.2902L161.76 46.0302H164.41L171.4 29.9702H168.57ZM145.68 40.8702H148.22V23.8402H145.68V40.8702Z" fill="white"/>
<path d="M28.2202 26.46L13.7202 41.85V41.86C14.1702 43.53 15.6902 44.76 17.5002 44.76C18.2202 44.76 18.9002 44.56 19.4902 44.22L19.5402 44.19L35.8602 34.78L28.2202 26.46Z" fill="#DC4439"/>
<path d="M42.8901 23.8402L42.8801 23.8302L35.8301 19.7402L27.8901 26.8102L35.8601 34.7802L42.8701 30.7402C44.1001 30.0802 44.9301 28.7802 44.9301 27.2902C44.9301 25.8002 44.1101 24.5102 42.8901 23.8402Z" fill="#EDBA2C"/>
<path d="M13.7198 12.6401C13.6298 12.9601 13.5898 13.3001 13.5898 13.6501V40.8501C13.5898 41.2001 13.6398 41.5401 13.7198 41.8601L28.7198 26.8601L13.7198 12.6401Z" fill="#4D87F2"/>
<path d="M28.3302 27.2502L35.8402 19.7502L19.5302 10.3002C18.9402 9.94024 18.2502 9.74023 17.5102 9.74023C15.7002 9.74023 14.1702 10.9702 13.7202 12.6502L28.3302 27.2502Z" fill="#5FA650"/>
<path d="M60.0957 12.8887H57.8984V11.623H60.0957C60.4551 11.623 60.7461 11.5645 60.9688 11.4473C61.1953 11.3262 61.3613 11.1621 61.4668 10.9551C61.5723 10.7441 61.625 10.5039 61.625 10.2344C61.625 9.97266 61.5723 9.72852 61.4668 9.50195C61.3613 9.27539 61.1953 9.0918 60.9688 8.95117C60.7461 8.81055 60.4551 8.74023 60.0957 8.74023H58.4258V16H56.8145V7.46875H60.0957C60.7598 7.46875 61.3262 7.58789 61.7949 7.82617C62.2676 8.06055 62.627 8.38672 62.873 8.80469C63.123 9.21875 63.248 9.69141 63.248 10.2227C63.248 10.7734 63.123 11.248 62.873 11.6465C62.627 12.0449 62.2676 12.3516 61.7949 12.5664C61.3262 12.7812 60.7598 12.8887 60.0957 12.8887ZM64.5137 7.46875H67.6133C68.2617 7.46875 68.8184 7.56641 69.2832 7.76172C69.748 7.95703 70.1055 8.24609 70.3555 8.62891C70.6055 9.01172 70.7305 9.48242 70.7305 10.041C70.7305 10.4824 70.6523 10.8652 70.4961 11.1895C70.3398 11.5137 70.1191 11.7852 69.834 12.0039C69.5527 12.2227 69.2207 12.3945 68.8379 12.5195L68.334 12.7773H65.5977L65.5859 11.5059H67.6309C67.9629 11.5059 68.2383 11.4473 68.457 11.3301C68.6758 11.2129 68.8398 11.0508 68.9492 10.8438C69.0625 10.6367 69.1191 10.4004 69.1191 10.1348C69.1191 9.84961 69.0645 9.60352 68.9551 9.39648C68.8457 9.18555 68.6797 9.02344 68.457 8.91016C68.2344 8.79688 67.9531 8.74023 67.6133 8.74023H66.125V16H64.5137V7.46875ZM69.3301 16L67.3555 12.1797L69.0605 12.1738L71.0586 15.918V16H69.3301ZM79.0508 11.5176V11.957C79.0508 12.6016 78.9648 13.1816 78.793 13.6973C78.6211 14.209 78.377 14.6445 78.0605 15.0039C77.7441 15.3633 77.3672 15.6387 76.9297 15.8301C76.4922 16.0215 76.0059 16.1172 75.4707 16.1172C74.9434 16.1172 74.459 16.0215 74.0176 15.8301C73.5801 15.6387 73.2012 15.3633 72.8809 15.0039C72.5605 14.6445 72.3125 14.209 72.1367 13.6973C71.9609 13.1816 71.873 12.6016 71.873 11.957V11.5176C71.873 10.8691 71.9609 10.2891 72.1367 9.77734C72.3125 9.26562 72.5586 8.83008 72.875 8.4707C73.1914 8.10742 73.5684 7.83008 74.0059 7.63867C74.4473 7.44727 74.9316 7.35156 75.459 7.35156C75.9941 7.35156 76.4805 7.44727 76.918 7.63867C77.3555 7.83008 77.7324 8.10742 78.0488 8.4707C78.3691 8.83008 78.6152 9.26562 78.7871 9.77734C78.9629 10.2891 79.0508 10.8691 79.0508 11.5176ZM77.4219 11.957V11.5059C77.4219 11.041 77.3789 10.6328 77.293 10.2812C77.207 9.92578 77.0801 9.62695 76.9121 9.38477C76.7441 9.14258 76.5371 8.96094 76.291 8.83984C76.0449 8.71484 75.7676 8.65234 75.459 8.65234C75.1465 8.65234 74.8691 8.71484 74.627 8.83984C74.3887 8.96094 74.1855 9.14258 74.0176 9.38477C73.8496 9.62695 73.7207 9.92578 73.6309 10.2812C73.5449 10.6328 73.502 11.041 73.502 11.5059V11.957C73.502 12.418 73.5449 12.8262 73.6309 13.1816C73.7207 13.5371 73.8496 13.8379 74.0176 14.084C74.1895 14.3262 74.3965 14.5098 74.6387 14.6348C74.8809 14.7598 75.1582 14.8223 75.4707 14.8223C75.7832 14.8223 76.0605 14.7598 76.3027 14.6348C76.5449 14.5098 76.748 14.3262 76.9121 14.084C77.0801 13.8379 77.207 13.5371 77.293 13.1816C77.3789 12.8262 77.4219 12.418 77.4219 11.957ZM74.709 6.95898L75.8574 5.17773H77.5684L75.9688 6.95898H74.709ZM81.5703 7.46875L83.2754 10.5098L84.9863 7.46875H86.8379L84.3066 11.6992L86.9023 16H85.0332L83.2754 12.9004L81.5234 16H79.6484L82.2441 11.6992L79.7129 7.46875H81.5703ZM89.6094 7.46875V16H87.998V7.46875H89.6094ZM92.0527 7.46875H93.4473L95.7793 13.8906L98.1055 7.46875H99.5059L96.3359 16H95.2168L92.0527 7.46875ZM91.3496 7.46875H92.7148L92.9609 13.3691V16H91.3496V7.46875ZM98.8379 7.46875H100.209V16H98.5977V13.3691L98.8379 7.46875ZM105.348 8.76367L102.916 16H101.211L104.398 7.46875H105.488L105.348 8.76367ZM107.381 16L104.938 8.76367L104.791 7.46875H105.887L109.092 16H107.381ZM107.27 12.8301V14.1016H102.693V12.8301H107.27ZM110.674 7.46875H112.068L114.4 13.8906L116.727 7.46875H118.127L114.957 16H113.838L110.674 7.46875ZM109.971 7.46875H111.336L111.582 13.3691V16H109.971V7.46875ZM117.459 7.46875H118.83V16H117.219V13.3691L117.459 7.46875ZM126.125 14.7344V16H121.59V14.7344H126.125ZM122.082 7.46875V16H120.471V7.46875H122.082ZM125.533 10.9902V12.2266H121.59V10.9902H125.533ZM126.107 7.46875V8.74023H121.59V7.46875H126.107ZM134.1 7.46875V16H132.482L128.855 10.082V16H127.244V7.46875H128.855L132.494 13.3926V7.46875H134.1ZM139.227 7.46875V16H137.621V7.46875H139.227ZM141.875 7.46875V8.74023H135.002V7.46875H141.875ZM148.602 14.7344V16H144.066V14.7344H148.602ZM144.559 7.46875V16H142.947V7.46875H144.559ZM148.01 10.9902V12.2266H144.066V10.9902H148.01ZM148.584 7.46875V8.74023H144.066V7.46875H148.584Z" fill="white"/>
</svg>
